<svg id="Layer_1" data-name="Layer 1" xmlns="http://www.w3.org/2000/svg" viewBox="0 0 95.94 107.31"><defs><style>.cls-1{fill:#fff;}</style></defs><title>DE_logo_square_2</title><path class="cls-1" d="M8.11,10.9H6a.71.71,0,0,1-.78-.78V3.52A.71.71,0,0,1,6,2.74H8.11A2.7,2.7,0,0,1,11,5.42V8.21A2.71,2.71,0,0,1,8.11,10.9ZM9.67,5.42A1.49,1.49,0,0,0,8.11,3.9H7a.36.36,0,0,0-.39.39V9.34A.35.35,0,0,0,7,9.73H8.11A1.49,1.49,0,0,0,9.67,8.21Z" transform="translate(-0.85 -2.56)"/><path class="cls-1" d="M19.68,10.9h-5a.36.36,0,0,1-.39-.39v-.39a.35.35,0,0,1,.39-.39h1.46a.35.35,0,0,0,.39-.39v-5a.36.36,0,0,0-.39-.39h-.88a.35.35,0,0,1-.39-.38V3.13a.35.35,0,0,1,.39-.39h3.88a.35.35,0,0,1,.39.39v.39a.35.35,0,0,1-.39.38h-.88a.36.36,0,0,0-.39.39V9.34a.36.36,0,0,0,.39.39h1.47a.36.36,0,0,1,.39.39v.39A.36.36,0,0,1,19.68,10.9Z" transform="translate(-0.85 -2.56)"/><path class="cls-1" d="M29.09,4.28a.4.4,0,0,1-.55.14,3.47,3.47,0,0,0-1.84-.6,1.55,1.55,0,0,0-1.55,1.6v.43a.35.35,0,0,0,.39.38h2.54a.36.36,0,0,1,.39.39V7a.35.35,0,0,1-.39.39H25.54a.35.35,0,0,0-.39.39v2.72a.36.36,0,0,1-.39.39h-.58a.36.36,0,0,1-.39-.39V5.42A2.84,2.84,0,0,1,26.7,2.56a4.55,4.55,0,0,1,2.48.8.39.39,0,0,1,.12.54Z" transform="translate(-0.85 -2.56)"/><path class="cls-1" d="M38.13,4.28a.4.4,0,0,1-.55.14,3.47,3.47,0,0,0-1.84-.6,1.55,1.55,0,0,0-1.55,1.6v.43a.35.35,0,0,0,.39.38h2.54a.36.36,0,0,1,.39.39V7a.35.35,0,0,1-.39.39H34.58a.35.35,0,0,0-.39.39v2.72a.36.36,0,0,1-.39.39h-.58a.36.36,0,0,1-.39-.39V5.42a2.84,2.84,0,0,1,2.91-2.86,4.55,4.55,0,0,1,2.48.8.39.39,0,0,1,.12.54Z" transform="translate(-0.85 -2.56)"/><path class="cls-1" d="M44.16,11.07a2.83,2.83,0,0,1-2.91-2.86V5.42a2.83,2.83,0,0,1,2.91-2.86A2.73,2.73,0,0,1,46.74,4.1a.39.39,0,0,1-.11.53l-.42.3a.34.34,0,0,1-.53-.09,1.72,1.72,0,0,0-1.52-1,1.55,1.55,0,0,0-1.55,1.6v.43a.35.35,0,0,0,.39.38h1.8a.36.36,0,0,1,.39.39V7a.36.36,0,0,1-.39.39H43a.35.35,0,0,0-.39.39v.42a1.55,1.55,0,0,0,1.55,1.61,1.73,1.73,0,0,0,1.52-1,.35.35,0,0,1,.53-.14l.41.28a.36.36,0,0,1,.15.53A2.75,2.75,0,0,1,44.16,11.07Z" transform="translate(-0.85 -2.56)"/><path class="cls-1" d="M55.84,10.9h-.59a.36.36,0,0,1-.39-.39V9A1.55,1.55,0,0,0,53.31,7.4H52.15a.35.35,0,0,0-.39.39v2.72a.36.36,0,0,1-.39.39h-.58a.36.36,0,0,1-.39-.39V5.42a2.83,2.83,0,0,1,2.91-2.86c1.66,0,2.91.94,2.91,2.51a1.85,1.85,0,0,1-.79,1.59.22.22,0,0,0,0,.37,2.38,2.38,0,0,1,.79,2v1.5A.35.35,0,0,1,55.84,10.9ZM53.31,3.82a1.55,1.55,0,0,0-1.55,1.6v.43a.35.35,0,0,0,.39.38h1.16c.46,0,1.55-.17,1.55-1.16S54.14,3.82,53.31,3.82Z" transform="translate(-0.85 -2.56)"/><path class="cls-1" d="M62.49,11.07a2.83,2.83,0,0,1-2.91-2.86V5.42a2.83,2.83,0,0,1,2.91-2.86A2.73,2.73,0,0,1,65.07,4.1a.4.4,0,0,1-.11.53l-.42.3A.34.34,0,0,1,64,4.84a1.72,1.72,0,0,0-1.52-1,1.55,1.55,0,0,0-1.55,1.6v.43a.35.35,0,0,0,.39.38h1.8a.36.36,0,0,1,.39.39V7a.36.36,0,0,1-.39.39h-1.8a.35.35,0,0,0-.39.39v.42a1.55,1.55,0,0,0,1.55,1.61,1.73,1.73,0,0,0,1.52-1,.35.35,0,0,1,.53-.14L65,9a.37.37,0,0,1,.15.53A2.75,2.75,0,0,1,62.49,11.07Z" transform="translate(-0.85 -2.56)"/><path class="cls-1" d="M73.91,10.9h-.67c-.24,0-.38-.18-.51-.39L70,5.63c-.09-.17-.25-.14-.25,0v4.88a.36.36,0,0,1-.39.39h-.49a.36.36,0,0,1-.39-.39V3.13a.35.35,0,0,1,.39-.39h.67c.24,0,.39.18.51.39L72.78,8c.11.17.25.14.25,0V3.13a.35.35,0,0,1,.39-.39h.49a.35.35,0,0,1,.39.39v7.38A.36.36,0,0,1,73.91,10.9Z" transform="translate(-0.85 -2.56)"/><path class="cls-1" d="M80.61,11.07a2.84,2.84,0,0,1-2.92-2.86V5.42a2.84,2.84,0,0,1,2.92-2.86A2.72,2.72,0,0,1,83.18,4.1a.4.4,0,0,1-.1.53l-.43.3a.34.34,0,0,1-.53-.09,1.7,1.7,0,0,0-1.51-1,1.56,1.56,0,0,0-1.56,1.6V8.21a1.56,1.56,0,0,0,1.56,1.61,1.73,1.73,0,0,0,1.51-1,.35.35,0,0,1,.53-.14l.41.28a.37.37,0,0,1,.16.53A2.78,2.78,0,0,1,80.61,11.07Z" transform="translate(-0.85 -2.56)"/><path class="cls-1" d="M89.61,11.07A2.83,2.83,0,0,1,86.7,8.21V5.42a2.83,2.83,0,0,1,2.91-2.86A2.73,2.73,0,0,1,92.19,4.1a.4.4,0,0,1-.11.53l-.42.3a.34.34,0,0,1-.53-.09,1.72,1.72,0,0,0-1.52-1,1.55,1.55,0,0,0-1.55,1.6v.43a.35.35,0,0,0,.39.38h1.8a.35.35,0,0,1,.38.39V7a.35.35,0,0,1-.38.39h-1.8a.35.35,0,0,0-.39.39v.42a1.55,1.55,0,0,0,1.55,1.61,1.74,1.74,0,0,0,1.52-1,.35.35,0,0,1,.53-.14l.4.28c.23.16.27.34.16.53A2.75,2.75,0,0,1,89.61,11.07Z" transform="translate(-0.85 -2.56)"/><path class="cls-1" d="M26.33,24.39a2.84,2.84,0,0,1-2.91-2.85V18.75a2.84,2.84,0,0,1,2.91-2.86,2.72,2.72,0,0,1,2.58,1.53.39.39,0,0,1-.11.53l-.42.3a.33.33,0,0,1-.53-.09,1.74,1.74,0,0,0-1.52-1,1.56,1.56,0,0,0-1.55,1.61v.42a.35.35,0,0,0,.39.39H27a.35.35,0,0,1,.39.39v.38a.35.35,0,0,1-.39.39h-1.8a.35.35,0,0,0-.39.39v.43a1.55,1.55,0,0,0,1.55,1.6,1.71,1.71,0,0,0,1.52-1,.35.35,0,0,1,.53-.14l.41.28a.37.37,0,0,1,.16.53A2.78,2.78,0,0,1,26.33,24.39Z" transform="translate(-0.85 -2.56)"/><path class="cls-1" d="M37.76,24.22h-.67c-.25,0-.39-.18-.52-.39L33.84,19c-.09-.18-.25-.14-.25,0v4.87a.35.35,0,0,1-.39.39h-.49a.35.35,0,0,1-.39-.39V16.45a.35.35,0,0,1,.39-.39h.67c.25,0,.39.18.51.39l2.74,4.82c.1.18.24.14.24,0V16.45a.35.35,0,0,1,.39-.39h.5a.35.35,0,0,1,.38.39v7.38A.35.35,0,0,1,37.76,24.22Z" transform="translate(-0.85 -2.56)"/><path class="cls-1" d="M44,24.39a2.83,2.83,0,0,1-2.91-2.85V18.75A2.83,2.83,0,0,1,44,15.89a2.72,2.72,0,0,1,2.58,1.53.4.4,0,0,1-.11.53l-.42.3a.33.33,0,0,1-.53-.09,1.74,1.74,0,0,0-1.52-1,1.55,1.55,0,0,0-1.55,1.61v2.79a1.55,1.55,0,1,0,3.1,0v-.43a.35.35,0,0,0-.38-.39h-.78a.35.35,0,0,1-.39-.39V20a.35.35,0,0,1,.39-.39h2.14a.35.35,0,0,1,.38.39v1.59A2.83,2.83,0,0,1,44,24.39Z" transform="translate(-0.85 -2.56)"/><path class="cls-1" d="M55.84,24.22H50.79a.35.35,0,0,1-.39-.39v-.39a.35.35,0,0,1,.39-.39h1.46a.35.35,0,0,0,.39-.39v-5a.35.35,0,0,0-.39-.39h-.88a.35.35,0,0,1-.39-.39v-.39a.35.35,0,0,1,.39-.39h3.88a.35.35,0,0,1,.39.39v.39a.35.35,0,0,1-.39.39h-.88a.35.35,0,0,0-.39.39v5a.35.35,0,0,0,.39.39h1.47a.35.35,0,0,1,.38.39v.39A.35.35,0,0,1,55.84,24.22Z" transform="translate(-0.85 -2.56)"/><path class="cls-1" d="M64.87,24.22H64.2c-.24,0-.38-.18-.51-.39L61,19c-.09-.18-.25-.14-.25,0v4.87a.35.35,0,0,1-.39.39h-.49a.35.35,0,0,1-.39-.39V16.45a.35.35,0,0,1,.39-.39h.67c.24,0,.39.18.51.39l2.73,4.82c.11.18.25.14.25,0V16.45a.35.35,0,0,1,.39-.39h.49a.35.35,0,0,1,.39.39v7.38A.35.35,0,0,1,64.87,24.22Z" transform="translate(-0.85 -2.56)"/><path class="cls-1" d="M71.53,24.39a2.83,2.83,0,0,1-2.91-2.85V18.75a2.83,2.83,0,0,1,2.91-2.86,2.72,2.72,0,0,1,2.58,1.53A.4.4,0,0,1,74,18l-.42.3a.33.33,0,0,1-.53-.09,1.74,1.74,0,0,0-1.52-1A1.55,1.55,0,0,0,70,18.75v.42a.35.35,0,0,0,.39.39h1.8a.35.35,0,0,1,.38.39v.38a.35.35,0,0,1-.38.39h-1.8a.35.35,0,0,0-.39.39v.43a1.55,1.55,0,0,0,1.55,1.6,1.71,1.71,0,0,0,1.52-1,.35.35,0,0,1,.53-.14l.41.28a.37.37,0,0,1,.15.53A2.75,2.75,0,0,1,71.53,24.39Z" transform="translate(-0.85 -2.56)"/><path class="cls-1" d="M19.87,103.57l-.3-1.77,0,0a.23.23,0,0,0-.33.15l-.84,1.62.18-2.71-.76.08-.17,4.6H18l1.26-2.45.4,2.45H20l0-.1a.06.06,0,0,1,0,0l1.28-4.07s0-.11,0-.17l.06-.21-.72-.09Z" transform="translate(-0.85 -2.56)"/><path class="cls-1" d="M29.79,103.44l.05,0a1.64,1.64,0,0,0,1-1.41.84.84,0,0,0-.44-.88,1.05,1.05,0,0,0-.5-.15c-.41,0-.84,0-1.24,0h-.39l-.09,0-.06,0-.77,4.4H28l.32-1.82H29l.07.19.69,1.74h.12l.56-.35-.73-1.71h.05ZM29,101.63c.24,0,.47,0,.69,0a.39.39,0,0,1,.39.44.81.81,0,0,1-.67.79,4.92,4.92,0,0,1-.67,0h-.23l.23-1.29Z" transform="translate(-0.85 -2.56)"/><path class="cls-1" d="M75.06,101h-.38a.31.31,0,0,0-.32.19l-.71,1.21-.16.26,0,0L73.05,101h-.87l-1,4.43H72l.66-3.18c.15.63.31,1.26.48,1.93l.05.19,1.26-2.1L74,105.4h.76l.61-4.45h-.29Z" transform="translate(-0.85 -2.56)"/><path class="cls-1" d="M50.46,101.88a.85.85,0,0,0-.46-.78,1.85,1.85,0,0,0-.64-.12c-.38,0-.77,0-1.15,0h-.63l-.11.66h.44l-.55,3.11h-.44l-.12.69h.76a14.44,14.44,0,0,0,1.48,0,1.41,1.41,0,0,0,1.28-1.11,1,1,0,0,0-.26-1.1l-.15-.11A1.33,1.33,0,0,0,50.46,101.88Zm-1.77,2.86h-.6l.22-1.28h.22a4.23,4.23,0,0,1,.62,0,.46.46,0,0,1,.45.4.71.71,0,0,1-.35.75,1.39,1.39,0,0,1-.29.1A1.23,1.23,0,0,1,48.69,104.74Zm.3-2h-.55v0c.06-.35.12-.71.19-1.07v0h.71a.4.4,0,0,1,.28.14.46.46,0,0,1,.07.36A.72.72,0,0,1,49,102.78Z" transform="translate(-0.85 -2.56)"/><path class="cls-1" d="M39.86,101a1.74,1.74,0,0,0-.34,0H37.77l-.07,0-.11.63H38l-.55,3.11H37l-.1.6.07,0,.07,0h.83q.5,0,1,0a1.63,1.63,0,0,0,1.48-1.1,7.33,7.33,0,0,0,.27-.92,4.14,4.14,0,0,0,.1-1.32A1.07,1.07,0,0,0,39.86,101Zm-1.1.62h.72a.52.52,0,0,1,.49.48,2.46,2.46,0,0,1,0,1.11,5.33,5.33,0,0,1-.24.83,1,1,0,0,1-1,.68h-.45Z" transform="translate(-0.85 -2.56)"/><path class="cls-1" d="M15.29,101A1.43,1.43,0,0,0,14,101a1.85,1.85,0,0,0-.91.86,4.08,4.08,0,0,0-.49,2.47,1.34,1.34,0,0,0,.52.93,1.32,1.32,0,0,0,.74.22l.32,0a1.79,1.79,0,0,0,1.22-.95,4.09,4.09,0,0,0,.5-2h0s0-.07,0-.11a2.09,2.09,0,0,0,0-.25A1.39,1.39,0,0,0,15.29,101Zm-.12,1.62a3.57,3.57,0,0,1-.33,1.42,2.22,2.22,0,0,1-.36.5.66.66,0,0,1-.53.21h0a.53.53,0,0,1-.54-.43,2.14,2.14,0,0,1-.06-.41s0-.08,0-.11a4.1,4.1,0,0,1,.4-1.66,2.27,2.27,0,0,1,.3-.39.69.69,0,0,1,.46-.21.51.51,0,0,1,.61.38A2.59,2.59,0,0,1,15.17,102.66Z" transform="translate(-0.85 -2.56)"/><path class="cls-1" d="M69.56,101.09a1.35,1.35,0,0,0-1.09-.16,1.8,1.8,0,0,0-1.18.93,4.29,4.29,0,0,0-.52,2h0v.1a2.66,2.66,0,0,0,0,.28,1.35,1.35,0,0,0,.55,1,1.2,1.2,0,0,0,.7.21,2.18,2.18,0,0,0,.42,0,1.75,1.75,0,0,0,1.11-.9,4,4,0,0,0,.51-2.51A1.32,1.32,0,0,0,69.56,101.09Zm-.16,1.51a5,5,0,0,1-.37,1.49,1.12,1.12,0,0,1-.4.53,1.29,1.29,0,0,1-.42.16.5.5,0,0,1-.6-.37,1.67,1.67,0,0,1-.08-.72,3.71,3.71,0,0,1,.39-1.51,1.9,1.9,0,0,1,.34-.43.67.67,0,0,1,.47-.18h0a.49.49,0,0,1,.51.36,3.56,3.56,0,0,1,.1.47Z" transform="translate(-0.85 -2.56)"/><path class="cls-1" d="M32.31,105.4h2.84l.12-.66H33.15l.24-1.35h1.75l.1-.67H33.51l.19-1.1h2.12v-.07l.09-.49V101H33.09Z" transform="translate(-0.85 -2.56)"/><path class="cls-1" d="M22.45,105.41h2.72s.14-.07.15-.15a2.34,2.34,0,0,0,.05-.3l0-.23H23.3l.24-1.33h1.74l.12-.68H23.65l.2-1.1H26l.1-.66H23.24Z" transform="translate(-0.85 -2.56)"/><path class="cls-1" d="M88.49,101.57A.5.5,0,0,1,89,102l.06.28.67-.19v-.06a1.07,1.07,0,0,0-1-1.16,2.16,2.16,0,0,0-.36,0,1.47,1.47,0,0,0-1.3,1,.94.94,0,0,0,.53,1.26,3.26,3.26,0,0,0,.38.18l.27.13a2.32,2.32,0,0,1,.32.17.43.43,0,0,1,.18.41.77.77,0,0,1-.66.71.66.66,0,0,1-.87-.63.5.5,0,0,0,0-.12l0-.17-.68.21v.07s0,.09,0,.13a1.9,1.9,0,0,0,0,.25,1.24,1.24,0,0,0,1.25,1H88a1.58,1.58,0,0,0,1.46-1.27,1,1,0,0,0-.61-1.24c-.27-.12-.55-.25-.83-.4a.47.47,0,0,1-.27-.38.49.49,0,0,1,.2-.44A.83.83,0,0,1,88.49,101.57Z" transform="translate(-0.85 -2.56)"/><path class="cls-1" d="M10.29,101H8.61a.18.18,0,0,0-.09,0l0,0-.78,4.39h.73l.33-1.84H9.6a1.55,1.55,0,0,0,1.56-1.31A1,1,0,0,0,10.29,101Zm-1.19.66h.26a5.55,5.55,0,0,1,.71,0c.24,0,.36.17.35.45a.73.73,0,0,1-.7.78,4.09,4.09,0,0,1-.61,0H8.89Z" transform="translate(-0.85 -2.56)"/><path class="cls-1" d="M83.69,100.88h-.06a1.64,1.64,0,0,0-1.27.61,3.47,3.47,0,0,0-.73,3,1.14,1.14,0,0,0,1,1,1.53,1.53,0,0,0,.3,0l.37,0a2.26,2.26,0,0,0,1.3-.89l.06-.07-.53-.42-.13.14-.14.15a1.37,1.37,0,0,1-.59.4.76.76,0,0,1-.6-.05.71.71,0,0,1-.32-.49v0a.44.44,0,0,1,0-.1,2.44,2.44,0,0,0,0-.27,5.34,5.34,0,0,1,0-.69,2.53,2.53,0,0,1,.43-1.12,1.07,1.07,0,0,1,.51-.4.63.63,0,0,1,.84.32,1,1,0,0,0,.07.15l.07.15.13-.06.21-.09.27-.13.06,0,0-.07A1.22,1.22,0,0,0,83.69,100.88Z" transform="translate(-0.85 -2.56)"/><path class="cls-1" d="M63,102.15a1.07,1.07,0,0,1,.59-.53.63.63,0,0,1,.85.34l.06.13.07.15.68-.31,0-.07a1.24,1.24,0,0,0-1.39-1,1.75,1.75,0,0,0-1.32.74,3.56,3.56,0,0,0-.65,2.69,1.2,1.2,0,0,0,1,1.13,1.66,1.66,0,0,0,.32,0h.2a2.07,2.07,0,0,0,1.45-.92l0-.07-.53-.41-.11.13-.1.12a1.35,1.35,0,0,1-.63.43.8.8,0,0,1-.64,0,.69.69,0,0,1-.28-.48,2.88,2.88,0,0,1,0-.67A3.14,3.14,0,0,1,63,102.15Z" transform="translate(-0.85 -2.56)"/><path class="cls-1" d="M53.7,102.94,53,100.81l-.72.35.06.15a.56.56,0,0,0,0,.12c.07.17.13.34.19.51.17.46.35.93.54,1.38a1.16,1.16,0,0,1,.07.75,2.3,2.3,0,0,0-.06.28v.05q-.06.34-.12.72l-.05.28h.71l0-.11a.29.29,0,0,0,0-.09c.08-.42.15-.85.22-1.28a.75.75,0,0,1,.14-.34L55.17,102l.29-.39.21-.29.13-.17-.62-.36Z" transform="translate(-0.85 -2.56)"/><polygon class="cls-1" points="76.77 99.07 77.36 99.07 76.81 102.19 76.21 102.19 76.1 102.84 78.03 102.84 78.15 102.17 77.54 102.17 78.09 99.06 78.69 99.06 78.81 98.4 76.88 98.4 76.77 99.07"/><path class="cls-1" d="M94.7,109.88H2.78a1.94,1.94,0,0,1-1.93-1.94V98.77a1.93,1.93,0,0,1,1.93-1.93h43.7l2.26-3.92L51,96.84H94.7a1.93,1.93,0,0,1,1.93,1.93v9.17A1.94,1.94,0,0,1,94.7,109.88ZM2.78,97.58a1.19,1.19,0,0,0-1.19,1.19v9.17a1.19,1.19,0,0,0,1.19,1.2H94.7a1.19,1.19,0,0,0,1.19-1.2V98.77a1.19,1.19,0,0,0-1.19-1.19H50.58L48.74,94.4,46.9,97.58Z" transform="translate(-0.85 -2.56)"/><path class="cls-1" d="M39.93,60.56a20.94,20.94,0,0,0-4.3-12.74L29.11,53.9a12.29,12.29,0,0,1-1.79,15.8A12.09,12.09,0,0,1,19,73h-.55A12.53,12.53,0,0,1,12,70.84L7.09,78.09A21.1,21.1,0,0,0,39.93,60.56Z" transform="translate(-0.85 -2.56)"/><path class="cls-1" d="M46.78,58.44,46.62,57a.76.76,0,0,0-.85-.68l-2.66.27,0-.15A24.2,24.2,0,0,0,41,49.79l-.07-.14,2.32-1.34a.76.76,0,0,0,.28-1.05L42.75,46a.76.76,0,0,0-1-.28L39.38,47l-.09-.13c-.31-.47-.66-.94-1.06-1.46l-.1-.12,2-1.8a.84.84,0,0,0,.26-.53.76.76,0,0,0-.2-.56l-1-1.1a.75.75,0,0,0-.54-.26.79.79,0,0,0-.56.2l-2,1.79L36,42.94c-.44-.42-.89-.83-1.34-1.21l-.12-.1,1.58-2.17A.79.79,0,0,0,36,38.37l-1.2-.87a.78.78,0,0,0-1.08.17L32.1,39.84,32,39.76c-.49-.32-1-.62-1.56-.91l-.14-.08,1.09-2.45a.76.76,0,0,0,0-.59A.79.79,0,0,0,31,35.3l-1.35-.6a.76.76,0,0,0-1,.39L27.5,37.53l-.15-.05c-.57-.21-1.15-.4-1.72-.57l-.15,0L26,34.25a.79.79,0,0,0-.11-.58.74.74,0,0,0-.49-.34L24,33a.77.77,0,0,0-.91.6l-.56,2.61-.16,0c-.56-.08-1.17-.14-1.79-.19h-.16V33.32a.78.78,0,0,0-.77-.77H18.15a.78.78,0,0,0-.77.77V36h-.16q-.9.06-1.8.18l-.15,0-.56-2.62a.79.79,0,0,0-.33-.49.81.81,0,0,0-.59-.11l-1.44.31a.72.72,0,0,0-.49.34.74.74,0,0,0-.11.58l.55,2.61-.15.05c-.58.16-1.16.34-1.72.55l-.15,0L9.19,35a.73.73,0,0,0-.43-.41.76.76,0,0,0-.59,0l-1.35.61a.76.76,0,0,0-.39,1l1.08,2.44-.14.07a24.35,24.35,0,0,0-2.25,1.35l1.24,1.81a22.4,22.4,0,0,1,27.26,1.79l1.25-1.17,3,3.19L36.6,46.91A22.41,22.41,0,0,1,6.35,79.18L5.11,81a22.32,22.32,0,0,0,2.15,1.3l.14.07L6.31,84.81a.75.75,0,0,0,0,.59.79.79,0,0,0,.41.43l1.35.6a.76.76,0,0,0,1-.39l1.09-2.44.15.05c.56.21,1.14.4,1.72.57l.15,0-.56,2.62a.79.79,0,0,0,.11.58.74.74,0,0,0,.49.34l1.45.31a.77.77,0,0,0,.91-.6l.56-2.61.15,0c.61.09,1.22.15,1.81.19h.15V87.8a.78.78,0,0,0,.77.78h1.49a.78.78,0,0,0,.77-.77V85.13h.16c.6,0,1.21-.1,1.8-.19l.15,0L23,87.54a.79.79,0,0,0,.33.49.76.76,0,0,0,.59.1l1.45-.3a.76.76,0,0,0,.48-.34.74.74,0,0,0,.11-.58l-.55-2.62.15,0c.63-.18,1.2-.36,1.72-.55l.15,0,1.09,2.44a.73.73,0,0,0,.43.41.8.8,0,0,0,.59,0l1.35-.61a.77.77,0,0,0,.39-1l-1.08-2.44.14-.07c.53-.28,1.06-.59,1.56-.91l.14-.08,1.57,2.17a.74.74,0,0,0,.51.31.77.77,0,0,0,.57-.14l1.2-.87A.77.77,0,0,0,36,81.75l-1.57-2.16.12-.1c.44-.37.88-.77,1.35-1.21l.11-.11L38,80a.77.77,0,0,0,1.09-.06l1-1.1a.76.76,0,0,0,.2-.56.72.72,0,0,0-.26-.53l-2-1.8.1-.12c.42-.53.77-1,1.07-1.46l.09-.13,2.32,1.34a.77.77,0,0,0,1.06-.28L43.43,74a.78.78,0,0,0-.28-1.06l-2.32-1.34.07-.14c.26-.52.51-1.08.74-1.65l.06-.14,2.55.83a.81.81,0,0,0,.59,0,.8.8,0,0,0,.38-.45l.46-1.41a.78.78,0,0,0-.49-1l-2.54-.82,0-.15a24.72,24.72,0,0,0,.75-6.06c0-.24,0-.49,0-.73v-.27l2.68-.28a.77.77,0,0,0,.52-.28A.8.8,0,0,0,46.78,58.44Z" transform="translate(-0.85 -2.56)"/><path class="cls-1" d="M7.1,43l4.83,7.09a12.34,12.34,0,0,1,14.21.6l6.51-6.08A21.08,21.08,0,0,0,7.1,43Z" transform="translate(-0.85 -2.56)"/><path class="cls-1" d="M27.37,53.72l.11-.09,8.5-8-1.17-1.26-.22.21L26.2,52.47l-.45-.38a11.31,11.31,0,0,0-7.18-2.6,10.84,10.84,0,0,0-7.42,2.9,11.1,11.1,0,0,0-.38,15.66,11.24,11.24,0,0,0,7.76,3.59,10.83,10.83,0,0,0,7.89-2.9A11,11,0,0,0,27.71,54.2ZM18.83,69.9h0a9.07,9.07,0,0,1-6.49-2.74,9.45,9.45,0,0,1,0-13.19,9,9,0,0,1,6.49-2.74,9.34,9.34,0,0,1,0,18.67Z" transform="translate(-0.85 -2.56)"/><path class="cls-1" d="M18.83,55.14h0a5.21,5.21,0,0,0-3.75,1.58,5.51,5.51,0,0,0,0,7.68A5.22,5.22,0,0,0,18.83,66a5.43,5.43,0,0,0,0-10.85Z" transform="translate(-0.85 -2.56)"/><path class="cls-1" d="M18.83,52.55h0a7.71,7.71,0,0,0-5.55,2.34A8.11,8.11,0,0,0,11,60.56a7.86,7.86,0,1,0,7.86-8Zm0,14.76h0a6.54,6.54,0,0,1-4.69-2,6.82,6.82,0,0,1,0-9.53,6.55,6.55,0,0,1,4.69-2,6.75,6.75,0,0,1,0,13.49Z" transform="translate(-0.85 -2.56)"/><path class="cls-1" d="M92.36,81l-1.25-1.84a22.42,22.42,0,1,1,0-37.18l1.26-1.85a24.45,24.45,0,0,0-2.15-1.29l-.14-.07,1.09-2.45a.77.77,0,0,0-.39-1l-1.35-.61a.78.78,0,0,0-1,.4l-1.09,2.44-.15-.06c-.56-.2-1.14-.39-1.72-.56l-.15,0,.56-2.62a.81.81,0,0,0-.11-.59.74.74,0,0,0-.49-.33L83.82,33a.81.81,0,0,0-.59.11.74.74,0,0,0-.33.49l-.56,2.61-.15,0c-.6-.09-1.21-.15-1.8-.19l-.16,0V33.32a.79.79,0,0,0-.77-.77H78a.77.77,0,0,0-.78.77V36H77c-.6,0-1.21.1-1.8.18l-.15,0-.56-2.62a.77.77,0,0,0-.91-.6l-1.45.31a.72.72,0,0,0-.49.34.79.79,0,0,0-.11.58l.55,2.61-.15.05c-.64.18-1.2.36-1.72.55l-.15,0L69,35a.79.79,0,0,0-1-.39l-1.35.6a.82.82,0,0,0-.41.43.78.78,0,0,0,0,.6l1.08,2.44-.13.07c-.53.28-1.06.58-1.57.9l-.14.09L63.92,37.6a.74.74,0,0,0-.51-.31.72.72,0,0,0-.57.13l-1.2.87a.78.78,0,0,0-.17,1.09L63,41.54l-.12.1c-.44.36-.88.76-1.35,1.21l-.11.11-2-1.8a.77.77,0,0,0-1.09.06l-1,1.1a.76.76,0,0,0,.06,1.09l2,1.8-.1.12c-.42.53-.77,1-1.07,1.45l-.09.13-2.32-1.34a.76.76,0,0,0-.59-.07.77.77,0,0,0-.47.36l-.74,1.28a.78.78,0,0,0,.28,1.06l2.32,1.33-.07.14a24.57,24.57,0,0,0-2.16,6.6l0,.15-2.67-.28a.79.79,0,0,0-.85.69l-.15,1.48a.77.77,0,0,0,.69.85l2.66.28v.15c0,.32,0,.64,0,1a24.4,24.4,0,0,0,.73,5.94l0,.15-2.54.83a.74.74,0,0,0-.45.38.72.72,0,0,0-.05.59l.46,1.41a.77.77,0,0,0,1,.5l2.54-.83.06.15c.24.6.48,1.14.73,1.66l.07.14-2.32,1.33A.77.77,0,0,0,54,73.87l.74,1.29a.76.76,0,0,0,.47.35.73.73,0,0,0,.58-.07L58.1,74.1l.09.13c.31.47.66,1,1.06,1.47l.1.12-2,1.8a.74.74,0,0,0-.25.53.71.71,0,0,0,.19.56l1,1.1a.78.78,0,0,0,.54.25.74.74,0,0,0,.56-.19l2-1.79.11.1c.43.43.89.84,1.34,1.22l.12.1-1.58,2.17a.78.78,0,0,0,.17,1.08l1.2.87a.77.77,0,0,0,1.08-.17l1.58-2.16.13.08c.54.34,1,.64,1.56.91l.14.08-1.09,2.45a.75.75,0,0,0,0,.59.82.82,0,0,0,.41.43l1.35.6a.8.8,0,0,0,.59,0,.75.75,0,0,0,.43-.41L70,83.6l.15.06c.52.19,1.08.37,1.72.55l.15.05-.56,2.62a.79.79,0,0,0,.11.58.78.78,0,0,0,.49.34l1.45.31a.77.77,0,0,0,.91-.6L75,84.89l.16,0c.57.08,1.17.14,1.8.19h.15V87.8a.78.78,0,0,0,.77.78h1.49a.78.78,0,0,0,.77-.78V85.13h.16c.6,0,1.2-.1,1.8-.19l.15,0,.56,2.63a.74.74,0,0,0,.33.48.73.73,0,0,0,.59.11l1.45-.3a.8.8,0,0,0,.48-.34.74.74,0,0,0,.11-.58l-.55-2.62.15,0c.58-.16,1.16-.35,1.72-.55l.15-.06,1.09,2.45a.76.76,0,0,0,1,.39l1.35-.6a.76.76,0,0,0,.39-1L90,82.42l.14-.07C90.88,81.94,91.64,81.48,92.36,81Z" transform="translate(-0.85 -2.56)"/><path class="cls-1" d="M78.67,76.13h0A15.59,15.59,0,0,1,63.36,63.28l-4.26-.49,0-4.64.14,0,4.1-.47A15.58,15.58,0,0,1,78.67,45h0a15.44,15.44,0,0,1,8.6,2.6l3.09-4.53a21.1,21.1,0,1,0,0,35l-3.09-4.54A15.5,15.5,0,0,1,78.67,76.13Z" transform="translate(-0.85 -2.56)"/><path class="cls-1" d="M87.09,58.31,87,57.9a8.75,8.75,0,0,0-8.25-6.1h-.06a8.78,8.78,0,0,0-8.36,6l-.13.4h-.1l-9.6,1.1,0,2.3,9.68,1.12.13.41a8.73,8.73,0,0,0,8.28,6.18h.1A8.73,8.73,0,0,0,87,63.24l.13-.4h.1l9.59-1.21v-2.3Zm-2.72,7.51a8,8,0,0,1-5.46,2.61h-.45A7.7,7.7,0,0,1,70.75,61,8,8,0,0,1,84,54.7a7.68,7.68,0,0,1,2.51,5.44A8,8,0,0,1,84.37,65.82Z" transform="translate(-0.85 -2.56)"/><path class="cls-1" d="M81.6,57.28a4.3,4.3,0,0,0-2.9-1.12h-.25a4.48,4.48,0,0,0-3.06,1.47,4.43,4.43,0,0,0-1.17,3.18,4.29,4.29,0,0,0,1.39,3A4.46,4.46,0,0,0,83,60.31,4.29,4.29,0,0,0,81.6,57.28Z" transform="translate(-0.85 -2.56)"/><path class="cls-1" d="M83.06,55.67A6.41,6.41,0,0,0,78.74,54a6.71,6.71,0,0,0-4.93,2.19,6.62,6.62,0,0,0-1.74,4.74,6.38,6.38,0,0,0,6.77,6.17,6.7,6.7,0,0,0,6.3-6.93A6.36,6.36,0,0,0,83.06,55.67Zm-.27,8.71,0,.05a5.81,5.81,0,0,1-4.24,1.85,5.61,5.61,0,0,1-5.61-5.41,5.85,5.85,0,0,1,5.48-6,5.62,5.62,0,0,1,5.93,5.41A5.74,5.74,0,0,1,82.79,64.38Z" transform="translate(-0.85 -2.56)"/></svg>